<svg width="122" height="84" viewBox="0 0 122 84" fill="none" xmlns="http://www.w3.org/2000/svg">
<path d="M7.31531 16.86C7.31531 17.6733 7.21531 18.4067 7.01531 19.06C6.81531 19.7133 6.51531 20.27 6.11531 20.73C5.72198 21.19 5.22865 21.5433 4.63531 21.79C4.04198 22.0367 3.35198 22.16 2.56531 22.16C2.20531 22.16 1.85198 22.1367 1.50531 22.09C1.15865 22.05 0.795313 21.9833 0.415313 21.89C0.435313 21.6233 0.458646 21.3567 0.485313 21.09C0.511979 20.8233 0.535313 20.5567 0.555313 20.29C0.575313 20.1433 0.631979 20.0267 0.725313 19.94C0.825313 19.8467 0.965313 19.8 1.14531 19.8C1.25865 19.8 1.40531 19.8233 1.58531 19.87C1.77198 19.9167 2.00531 19.94 2.28531 19.94C2.66531 19.94 3.00198 19.8867 3.29531 19.78C3.58865 19.6667 3.83198 19.49 4.02531 19.25C4.22531 19.01 4.37531 18.7 4.47531 18.32C4.57531 17.9333 4.62531 17.4667 4.62531 16.92V7.54H7.31531V16.86ZM25.1891 14.77C25.1891 15.83 25.0124 16.8133 24.6591 17.72C24.3124 18.62 23.8191 19.4 23.1791 20.06C22.5391 20.72 21.7691 21.2367 20.8691 21.61C19.9691 21.9767 18.9691 22.16 17.8691 22.16C16.7757 22.16 15.7791 21.9767 14.8791 21.61C13.9791 21.2367 13.2057 20.72 12.5591 20.06C11.9191 19.4 11.4224 18.62 11.0691 17.72C10.7157 16.8133 10.5391 15.83 10.5391 14.77C10.5391 13.71 10.7157 12.73 11.0691 11.83C11.4224 10.9233 11.9191 10.14 12.5591 9.48C13.2057 8.82 13.9791 8.30667 14.8791 7.94C15.7791 7.56667 16.7757 7.38 17.8691 7.38C18.6024 7.38 19.2924 7.46667 19.9391 7.64C20.5857 7.80667 21.1791 8.04667 21.7191 8.36C22.2591 8.66667 22.7424 9.04333 23.1691 9.49C23.6024 9.93 23.9691 10.4233 24.2691 10.97C24.5691 11.5167 24.7957 12.11 24.9491 12.75C25.1091 13.39 25.1891 14.0633 25.1891 14.77ZM22.4391 14.77C22.4391 13.9767 22.3324 13.2667 22.1191 12.64C21.9057 12.0067 21.6024 11.47 21.2091 11.03C20.8157 10.59 20.3357 10.2533 19.7691 10.02C19.2091 9.78667 18.5757 9.67 17.8691 9.67C17.1624 9.67 16.5257 9.78667 15.9591 10.02C15.3991 10.2533 14.9191 10.59 14.5191 11.03C14.1257 11.47 13.8224 12.0067 13.6091 12.64C13.3957 13.2667 13.2891 13.9767 13.2891 14.77C13.2891 15.5633 13.3957 16.2767 13.6091 16.91C13.8224 17.5367 14.1257 18.07 14.5191 18.51C14.9191 18.9433 15.3991 19.2767 15.9591 19.51C16.5257 19.7433 17.1624 19.86 17.8691 19.86C18.5757 19.86 19.2091 19.7433 19.7691 19.51C20.3357 19.2767 20.8157 18.9433 21.2091 18.51C21.6024 18.07 21.9057 17.5367 22.1191 16.91C22.3324 16.2767 22.4391 15.5633 22.4391 14.77ZM36.2514 10.17C36.1714 10.31 36.0847 10.4133 35.9914 10.48C35.9047 10.54 35.7947 10.57 35.6614 10.57C35.5214 10.57 35.3681 10.52 35.2014 10.42C35.0414 10.3133 34.8481 10.1967 34.6214 10.07C34.3947 9.94333 34.1281 9.83 33.8214 9.73C33.5214 9.62333 33.1647 9.57 32.7514 9.57C32.3781 9.57 32.0514 9.61667 31.7714 9.71C31.4914 9.79667 31.2547 9.92 31.0614 10.08C30.8747 10.24 30.7347 10.4333 30.6414 10.66C30.5481 10.88 30.5014 11.1233 30.5014 11.39C30.5014 11.73 30.5947 12.0133 30.7814 12.24C30.9747 12.4667 31.2281 12.66 31.5414 12.82C31.8547 12.98 32.2114 13.1233 32.6114 13.25C33.0114 13.3767 33.4214 13.5133 33.8414 13.66C34.2614 13.8 34.6714 13.9667 35.0714 14.16C35.4714 14.3467 35.8281 14.5867 36.1414 14.88C36.4547 15.1667 36.7047 15.52 36.8914 15.94C37.0847 16.36 37.1814 16.87 37.1814 17.47C37.1814 18.1233 37.0681 18.7367 36.8414 19.31C36.6214 19.8767 36.2947 20.3733 35.8614 20.8C35.4347 21.22 34.9114 21.5533 34.2914 21.8C33.6714 22.04 32.9614 22.16 32.1614 22.16C31.7014 22.16 31.2481 22.1133 30.8014 22.02C30.3547 21.9333 29.9247 21.8067 29.5114 21.64C29.1047 21.4733 28.7214 21.2733 28.3614 21.04C28.0014 20.8067 27.6814 20.5467 27.4014 20.26L28.1914 18.97C28.2581 18.8767 28.3447 18.8 28.4514 18.74C28.5581 18.6733 28.6714 18.64 28.7914 18.64C28.9581 18.64 29.1381 18.71 29.3314 18.85C29.5247 18.9833 29.7547 19.1333 30.0214 19.3C30.2881 19.4667 30.5981 19.62 30.9514 19.76C31.3114 19.8933 31.7414 19.96 32.2414 19.96C33.0081 19.96 33.6014 19.78 34.0214 19.42C34.4414 19.0533 34.6514 18.53 34.6514 17.85C34.6514 17.47 34.5547 17.16 34.3614 16.92C34.1747 16.68 33.9247 16.48 33.6114 16.32C33.2981 16.1533 32.9414 16.0133 32.5414 15.9C32.1414 15.7867 31.7347 15.6633 31.3214 15.53C30.9081 15.3967 30.5014 15.2367 30.1014 15.05C29.7014 14.8633 29.3447 14.62 29.0314 14.32C28.7181 14.02 28.4647 13.6467 28.2714 13.2C28.0847 12.7467 27.9914 12.19 27.9914 11.53C27.9914 11.0033 28.0947 10.49 28.3014 9.99C28.5147 9.49 28.8214 9.04667 29.2214 8.66C29.6214 8.27333 30.1147 7.96333 30.7014 7.73C31.2881 7.49667 31.9614 7.38 32.7214 7.38C33.5747 7.38 34.3614 7.51333 35.0814 7.78C35.8014 8.04667 36.4147 8.42 36.9214 8.9L36.2514 10.17ZM50.628 9.75H46.268V22H43.578V9.75H39.218V7.54H50.628V9.75ZM56.2202 9.68V13.69H61.2802V15.76H56.2202V19.85H62.6402V22H53.5202V7.54H62.6402V9.68H56.2202ZM78.4141 7.54L72.5741 22H70.1441L64.3041 7.54H66.4641C66.6974 7.54 66.8874 7.59667 67.0341 7.71C67.1807 7.82333 67.2907 7.97 67.3641 8.15L70.7741 16.97C70.8874 17.2567 70.9941 17.5733 71.0941 17.92C71.2007 18.26 71.3007 18.6167 71.3941 18.99C71.4741 18.6167 71.5607 18.26 71.6541 17.92C71.7474 17.5733 71.8507 17.2567 71.9641 16.97L75.3541 8.15C75.4074 7.99667 75.5107 7.85667 75.6641 7.73C75.8241 7.60333 76.0174 7.54 76.2441 7.54H78.4141ZM83.6108 9.68V13.69H88.6708V15.76H83.6108V19.85H90.0308V22H80.9108V7.54H90.0308V9.68H83.6108Z" fill="black"/>
<path d="M9.73242 44.54L7.97242 39.73C7.88576 39.5167 7.79576 39.2633 7.70242 38.97C7.60909 38.6767 7.51576 38.36 7.42242 38.02C7.33576 38.36 7.24576 38.68 7.15242 38.98C7.05909 39.2733 6.96909 39.53 6.88242 39.75L5.13242 44.54H9.73242ZM14.4824 50H12.4024C12.1691 50 11.9791 49.9433 11.8324 49.83C11.6858 49.71 11.5758 49.5633 11.5024 49.39L10.4224 46.44H4.43242L3.35242 49.39C3.29909 49.5433 3.19576 49.6833 3.04242 49.81C2.88909 49.9367 2.69909 50 2.47242 50H0.372422L6.06242 35.54H8.80242L14.4824 50ZM22.4476 47.83C22.9676 47.83 23.4309 47.7433 23.8376 47.57C24.2509 47.3967 24.5976 47.1533 24.8776 46.84C25.1576 46.5267 25.3709 46.1467 25.5176 45.7C25.6709 45.2533 25.7476 44.7533 25.7476 44.2V35.54H28.4376V44.2C28.4376 45.06 28.2976 45.8567 28.0176 46.59C27.7442 47.3167 27.3476 47.9467 26.8276 48.48C26.3142 49.0067 25.6876 49.42 24.9476 49.72C24.2076 50.0133 23.3742 50.16 22.4476 50.16C21.5142 50.16 20.6776 50.0133 19.9376 49.72C19.1976 49.42 18.5676 49.0067 18.0476 48.48C17.5342 47.9467 17.1376 47.3167 16.8576 46.59C16.5842 45.8567 16.4476 45.06 16.4476 44.2V35.54H19.1376V44.19C19.1376 44.7433 19.2109 45.2433 19.3576 45.69C19.5109 46.1367 19.7276 46.52 20.0076 46.84C20.2942 47.1533 20.6409 47.3967 21.0476 47.57C21.4609 47.7433 21.9276 47.83 22.4476 47.83ZM42.5713 37.75H38.2113V50H35.5213V37.75H31.1613V35.54H42.5713V37.75ZM58.7652 42.77C58.7652 43.83 58.5886 44.8133 58.2352 45.72C57.8886 46.62 57.3952 47.4 56.7552 48.06C56.1152 48.72 55.3452 49.2367 54.4452 49.61C53.5452 49.9767 52.5452 50.16 51.4452 50.16C50.3519 50.16 49.3552 49.9767 48.4552 49.61C47.5552 49.2367 46.7819 48.72 46.1352 48.06C45.4952 47.4 44.9986 46.62 44.6452 45.72C44.2919 44.8133 44.1152 43.83 44.1152 42.77C44.1152 41.71 44.2919 40.73 44.6452 39.83C44.9986 38.9233 45.4952 38.14 46.1352 37.48C46.7819 36.82 47.5552 36.3067 48.4552 35.94C49.3552 35.5667 50.3519 35.38 51.4452 35.38C52.1786 35.38 52.8686 35.4667 53.5152 35.64C54.1619 35.8067 54.7552 36.0467 55.2952 36.36C55.8352 36.6667 56.3186 37.0433 56.7452 37.49C57.1786 37.93 57.5452 38.4233 57.8452 38.97C58.1452 39.5167 58.3719 40.11 58.5252 40.75C58.6852 41.39 58.7652 42.0633 58.7652 42.77ZM56.0152 42.77C56.0152 41.9767 55.9086 41.2667 55.6952 40.64C55.4819 40.0067 55.1786 39.47 54.7852 39.03C54.3919 38.59 53.9119 38.2533 53.3452 38.02C52.7852 37.7867 52.1519 37.67 51.4452 37.67C50.7386 37.67 50.1019 37.7867 49.5352 38.02C48.9752 38.2533 48.4952 38.59 48.0952 39.03C47.7019 39.47 47.3986 40.0067 47.1852 40.64C46.9719 41.2667 46.8652 41.9767 46.8652 42.77C46.8652 43.5633 46.9719 44.2767 47.1852 44.91C47.3986 45.5367 47.7019 46.07 48.0952 46.51C48.4952 46.9433 48.9752 47.2767 49.5352 47.51C50.1019 47.7433 50.7386 47.86 51.4452 47.86C52.1519 47.86 52.7852 47.7433 53.3452 47.51C53.9119 47.2767 54.3919 46.9433 54.7852 46.51C55.1786 46.07 55.4819 45.5367 55.6952 44.91C55.9086 44.2767 56.0152 43.5633 56.0152 42.77Z" fill="#FF0000"/>
<path d="M17.3447 63.54V78H14.9747V68.66C14.9747 68.2867 14.9947 67.8833 15.0347 67.45L10.6647 75.66C10.458 76.0533 10.1414 76.25 9.71469 76.25H9.33469C8.90802 76.25 8.59135 76.0533 8.38469 75.66L3.96469 67.42C3.98469 67.64 4.00135 67.8567 4.01469 68.07C4.02802 68.2833 4.03469 68.48 4.03469 68.66V78H1.66469V63.54H3.69469C3.81469 63.54 3.91802 63.5433 4.00469 63.55C4.09135 63.5567 4.16802 63.5733 4.23469 63.6C4.30802 63.6267 4.37135 63.67 4.42469 63.73C4.48469 63.79 4.54135 63.87 4.59469 63.97L8.92469 72C9.03802 72.2133 9.14135 72.4333 9.23469 72.66C9.33469 72.8867 9.43135 73.12 9.52469 73.36C9.61802 73.1133 9.71469 72.8767 9.81469 72.65C9.91469 72.4167 10.0214 72.1933 10.1347 71.98L14.4047 63.97C14.458 63.87 14.5147 63.79 14.5747 63.73C14.6347 63.67 14.698 63.6267 14.7647 63.6C14.838 63.5733 14.918 63.5567 15.0047 63.55C15.0914 63.5433 15.1947 63.54 15.3147 63.54H17.3447ZM35.3609 70.77C35.3609 71.83 35.1843 72.8133 34.8309 73.72C34.4843 74.62 33.9909 75.4 33.3509 76.06C32.7109 76.72 31.9409 77.2367 31.0409 77.61C30.1409 77.9767 29.1409 78.16 28.0409 78.16C26.9476 78.16 25.9509 77.9767 25.0509 77.61C24.1509 77.2367 23.3776 76.72 22.7309 76.06C22.0909 75.4 21.5943 74.62 21.2409 73.72C20.8876 72.8133 20.7109 71.83 20.7109 70.77C20.7109 69.71 20.8876 68.73 21.2409 67.83C21.5943 66.9233 22.0909 66.14 22.7309 65.48C23.3776 64.82 24.1509 64.3067 25.0509 63.94C25.9509 63.5667 26.9476 63.38 28.0409 63.38C28.7743 63.38 29.4643 63.4667 30.1109 63.64C30.7576 63.8067 31.3509 64.0467 31.8909 64.36C32.4309 64.6667 32.9143 65.0433 33.3409 65.49C33.7743 65.93 34.1409 66.4233 34.4409 66.97C34.7409 67.5167 34.9676 68.11 35.1209 68.75C35.2809 69.39 35.3609 70.0633 35.3609 70.77ZM32.6109 70.77C32.6109 69.9767 32.5043 69.2667 32.2909 68.64C32.0776 68.0067 31.7743 67.47 31.3809 67.03C30.9876 66.59 30.5076 66.2533 29.9409 66.02C29.3809 65.7867 28.7476 65.67 28.0409 65.67C27.3343 65.67 26.6976 65.7867 26.1309 66.02C25.5709 66.2533 25.0909 66.59 24.6909 67.03C24.2976 67.47 23.9943 68.0067 23.7809 68.64C23.5676 69.2667 23.4609 69.9767 23.4609 70.77C23.4609 71.5633 23.5676 72.2767 23.7809 72.91C23.9943 73.5367 24.2976 74.07 24.6909 74.51C25.0909 74.9433 25.5709 75.2767 26.1309 75.51C26.6976 75.7433 27.3343 75.86 28.0409 75.86C28.7476 75.86 29.3809 75.7433 29.9409 75.51C30.5076 75.2767 30.9876 74.9433 31.3809 74.51C31.7743 74.07 32.0776 73.5367 32.2909 72.91C32.5043 72.2767 32.6109 71.5633 32.6109 70.77ZM48.335 65.75H43.975V78H41.285V65.75H36.925V63.54H48.335V65.75ZM53.9272 78H51.2272V63.54H53.9272V78ZM70.5547 63.54L64.7147 78H62.2847L56.4447 63.54H58.6047C58.838 63.54 59.028 63.5967 59.1747 63.71C59.3214 63.8233 59.4314 63.97 59.5047 64.15L62.9147 72.97C63.028 73.2567 63.1347 73.5733 63.2347 73.92C63.3414 74.26 63.4414 74.6167 63.5347 74.99C63.6147 74.6167 63.7014 74.26 63.7947 73.92C63.888 73.5733 63.9914 73.2567 64.1047 72.97L67.4947 64.15C67.548 63.9967 67.6514 63.8567 67.8047 63.73C67.9647 63.6033 68.158 63.54 68.3847 63.54H70.5547ZM75.7514 65.68V69.69H80.8114V71.76H75.7514V75.85H82.1714V78H73.0514V63.54H82.1714V65.68H75.7514Z" fill="#7B7B7B"/>
</svg>
